M48
METRIC,LZ,000.000
;FILE_FORMAT=3:3
;TYPE=PLATED
;Layer: PTH_Through
;EasyEDA v6.5.37, 2023-12-02 15:11:21
;31473a8e6aac44f1905b94e0de15a8d0,10
;Gerber Generator version 0.2
;Holesize 1 = 0.889 mm
T01C0.889
;Holesize 2 = 0.915 mm
T02C0.915
;Holesize 3 = 1.021 mm
T03C1.021
;Holesize 4 = 1.081 mm
T04C1.081
;Holesize 5 = 1.101 mm
T05C1.101
;Holesize 6 = 1.301 mm
T06C1.301
%
G05
G90
T01
X092075Y-009525
X089535Y-009525
X032385Y-034925
X032385Y-032385
X032385Y-029845
X032385Y-027305
X026035Y-034925
X026035Y-032385
X026035Y-029845
X026035Y-027305
X019050Y-034925
X019050Y-032385
X019050Y-029845
X019050Y-027305
X003810Y-009525
X003810Y-006985
X006350Y-009525
X006350Y-006985
X008890Y-009525
X008890Y-006985
X011430Y-009525
X011430Y-006985
X057150Y-007620
X054610Y-007620
X052070Y-007620
X049530Y-007620
T02
X086995Y-009525
X046990Y-038765
X049530Y-038765
X052070Y-038765
X054610Y-038765
X057150Y-038765
X059690Y-038765
X062230Y-038765
X064770Y-038765
X067310Y-038765
X069850Y-038765
X072390Y-038765
X074930Y-038765
X077470Y-038765
X080010Y-038765
X082550Y-038765
X085090Y-038765
X087630Y-038765
X090170Y-038765
X092710Y-038765
X092710Y-013305
X090170Y-013305
X087630Y-013305
X085090Y-013305
X082550Y-013305
X080010Y-013305
X077470Y-013305
X074930Y-013305
X072390Y-013305
X069850Y-013305
X067310Y-013305
X064770Y-013305
X062230Y-013305
X059690Y-013305
X057150Y-013305
X054610Y-013305
X052070Y-013305
X049530Y-013305
X046990Y-013305
T03
X018415Y-012764
X018415Y-010224
X018415Y-007684
X018415Y-005207
X028448Y-005207
X028448Y-007747
X028448Y-010224
X028448Y-012764
X028448Y-015304
X028448Y-017844
X018415Y-015240
X018415Y-017907
T04
X008890Y-034010
X006350Y-034010
X003810Y-034010
X011430Y-034010
T05
X079375Y-006985
X079375Y-009525
X083185Y-009525
X083185Y-006985
T06
X072390Y-008890
X074930Y-010795
X036195Y-027305
X043180Y-038735
X037465Y-005080
X034925Y-007620
M30
