G04 Layer: BottomSolderMaskLayer*
G04 EasyEDA v6.5.37, 2023-12-02 15:11:21*
G04 31473a8e6aac44f1905b94e0de15a8d0,10*
G04 Gerber Generator version 0.2*
G04 Scale: 100 percent, Rotated: No, Reflected: No *
G04 Dimensions in millimeters *
G04 leading zeros omitted , absolute positions ,4 integer and 5 decimal *
%FSLAX45Y45*%
%MOMM*%

%AMMACRO1*1,1,$1,$2,$3*1,1,$1,$4,$5*1,1,$1,0-$2,0-$3*1,1,$1,0-$4,0-$5*20,1,$1,$2,$3,$4,$5,0*20,1,$1,$4,$5,0-$2,0-$3,0*20,1,$1,0-$2,0-$3,0-$4,0-$5,0*20,1,$1,0-$4,0-$5,$2,$3,0*4,1,4,$2,$3,$4,$5,0-$2,0-$3,0-$4,0-$5,$2,$3,0*%
%ADD10MACRO1,0.1016X0.7874X0.85X0.7874X-0.85*%
%ADD11C,1.8016*%
%ADD12MACRO1,0.1016X0.7874X-0.7874X-0.7874X-0.7874*%
%ADD13C,1.6764*%
%ADD14MACRO1,0.1016X-0.7874X-0.85X-0.7874X0.85*%
%ADD15C,1.6256*%
%ADD16R,1.6764X1.6764*%
%ADD17MACRO1,0.2032X0.9X0.9X0.9X-0.9*%
%ADD18MACRO1,0.1016X-0.7874X0.7874X0.7874X0.7874*%

%LPD*%
D10*
G01*
X7937500Y-698501D03*
D11*
G01*
X7937500Y-952500D03*
D12*
G01*
X9207500Y-952500D03*
D13*
G01*
X8953500Y-952500D03*
G01*
X8699500Y-952500D03*
D14*
G01*
X8318500Y-952498D03*
D11*
G01*
X8318500Y-698500D03*
D15*
G01*
X4699000Y-3876497D03*
G01*
X4953000Y-3876497D03*
G01*
X5207000Y-3876497D03*
G01*
X5461000Y-3876497D03*
G01*
X5715000Y-3876497D03*
G01*
X5969000Y-3876497D03*
G01*
X6223000Y-3876497D03*
G01*
X6477000Y-3876497D03*
G01*
X6731000Y-3876497D03*
G01*
X6985000Y-3876497D03*
G01*
X7239000Y-3876497D03*
G01*
X7493000Y-3876497D03*
G01*
X7747000Y-3876497D03*
G01*
X8001000Y-3876497D03*
G01*
X8255000Y-3876497D03*
G01*
X8509000Y-3876497D03*
G01*
X8763000Y-3876497D03*
G01*
X9017000Y-3876497D03*
G01*
X9271000Y-3876497D03*
G01*
X9271000Y-1330502D03*
G01*
X9017000Y-1330502D03*
G01*
X8763000Y-1330502D03*
G01*
X8509000Y-1330502D03*
G01*
X8255000Y-1330502D03*
G01*
X8001000Y-1330502D03*
G01*
X7747000Y-1330502D03*
G01*
X7493000Y-1330502D03*
G01*
X7239000Y-1330502D03*
G01*
X6985000Y-1330502D03*
G01*
X6731000Y-1330502D03*
G01*
X6477000Y-1330502D03*
G01*
X6223000Y-1330502D03*
G01*
X5969000Y-1330502D03*
G01*
X5715000Y-1330502D03*
G01*
X5461000Y-1330502D03*
G01*
X5207000Y-1330502D03*
G01*
X4953000Y-1330502D03*
G01*
X4699000Y-1330502D03*
D16*
G01*
X3238500Y-3492500D03*
D13*
G01*
X3238500Y-3238500D03*
G01*
X3238500Y-2984500D03*
G01*
X3238500Y-2730500D03*
D16*
G01*
X2603500Y-3492500D03*
D13*
G01*
X2603500Y-3238500D03*
G01*
X2603500Y-2984500D03*
G01*
X2603500Y-2730500D03*
D16*
G01*
X1905000Y-3492500D03*
D13*
G01*
X1905000Y-3238500D03*
G01*
X1905000Y-2984500D03*
G01*
X1905000Y-2730500D03*
D17*
G01*
X889025Y-3401006D03*
G01*
X635025Y-3401006D03*
G01*
X381025Y-3401006D03*
G01*
X1143025Y-3401006D03*
D13*
G01*
X1841500Y-1276350D03*
G01*
X1841500Y-1022350D03*
G01*
X1841500Y-768350D03*
G01*
X1841500Y-520700D03*
G01*
X2844800Y-520700D03*
G01*
X2844800Y-774700D03*
G01*
X2844800Y-1022350D03*
G01*
X2844800Y-1276350D03*
G01*
X2844800Y-1530350D03*
D16*
G01*
X2844800Y-1784350D03*
D13*
G01*
X1841500Y-1524000D03*
G01*
X1841500Y-1790700D03*
D18*
G01*
X381000Y-952500D03*
D13*
G01*
X381000Y-698500D03*
G01*
X635000Y-952500D03*
G01*
X635000Y-698500D03*
G01*
X889000Y-952500D03*
G01*
X889000Y-698500D03*
G01*
X1143000Y-952500D03*
G01*
X1143000Y-698500D03*
D12*
G01*
X5715000Y-762000D03*
D13*
G01*
X5461000Y-762000D03*
G01*
X5207000Y-762000D03*
G01*
X4953000Y-762000D03*
M02*
