G04 Layer: TopLayer*
G04 EasyEDA v6.5.37, 2023-12-02 15:11:21*
G04 31473a8e6aac44f1905b94e0de15a8d0,10*
G04 Gerber Generator version 0.2*
G04 Scale: 100 percent, Rotated: No, Reflected: No *
G04 Dimensions in millimeters *
G04 leading zeros omitted , absolute positions ,4 integer and 5 decimal *
%FSLAX45Y45*%
%MOMM*%

%ADD10C,0.6350*%
%ADD11R,1.5748X1.7000*%
%ADD12C,1.7000*%
%ADD13R,1.5748X1.5748*%
%ADD14C,1.5748*%
%ADD15C,1.5240*%
%ADD16R,1.8001X1.8000*%
%ADD17C,2.0000*%

%LPD*%
D10*
X3492500Y-762000D02*
G01*
X3810000Y-1079500D01*
X7493000Y-1079500D01*
X7239000Y-889000D02*
G01*
X6858000Y-508000D01*
X4318000Y-508000D01*
X4318000Y-508000D02*
G01*
X3746500Y-508000D01*
X4318000Y-3873500D02*
G01*
X3810000Y-3873500D01*
X3619500Y-3683000D01*
X3619500Y-2730500D01*
D11*
G01*
X7937500Y-698500D03*
D12*
G01*
X7937500Y-952500D03*
D13*
G01*
X9207500Y-952500D03*
D14*
G01*
X8953500Y-952500D03*
G01*
X8699500Y-952500D03*
D11*
G01*
X8318500Y-952500D03*
D12*
G01*
X8318500Y-698500D03*
D15*
G01*
X4699000Y-3876497D03*
G01*
X4953000Y-3876497D03*
G01*
X5207000Y-3876497D03*
G01*
X5461000Y-3876497D03*
G01*
X5715000Y-3876497D03*
G01*
X5969000Y-3876497D03*
G01*
X6223000Y-3876497D03*
G01*
X6477000Y-3876497D03*
G01*
X6731000Y-3876497D03*
G01*
X6985000Y-3876497D03*
G01*
X7239000Y-3876497D03*
G01*
X7493000Y-3876497D03*
G01*
X7747000Y-3876497D03*
G01*
X8001000Y-3876497D03*
G01*
X8255000Y-3876497D03*
G01*
X8509000Y-3876497D03*
G01*
X8763000Y-3876497D03*
G01*
X9017000Y-3876497D03*
G01*
X9271000Y-3876497D03*
G01*
X9271000Y-1330502D03*
G01*
X9017000Y-1330502D03*
G01*
X8763000Y-1330502D03*
G01*
X8509000Y-1330502D03*
G01*
X8255000Y-1330502D03*
G01*
X8001000Y-1330502D03*
G01*
X7747000Y-1330502D03*
G01*
X7493000Y-1330502D03*
G01*
X7239000Y-1330502D03*
G01*
X6985000Y-1330502D03*
G01*
X6731000Y-1330502D03*
G01*
X6477000Y-1330502D03*
G01*
X6223000Y-1330502D03*
G01*
X5969000Y-1330502D03*
G01*
X5715000Y-1330502D03*
G01*
X5461000Y-1330502D03*
G01*
X5207000Y-1330502D03*
G01*
X4953000Y-1330502D03*
G01*
X4699000Y-1330502D03*
D13*
G01*
X3238500Y-3492500D03*
D14*
G01*
X3238500Y-3238500D03*
G01*
X3238500Y-2984500D03*
G01*
X3238500Y-2730500D03*
D13*
G01*
X2603500Y-3492500D03*
D14*
G01*
X2603500Y-3238500D03*
G01*
X2603500Y-2984500D03*
G01*
X2603500Y-2730500D03*
D13*
G01*
X1905000Y-3492500D03*
D14*
G01*
X1905000Y-3238500D03*
G01*
X1905000Y-2984500D03*
G01*
X1905000Y-2730500D03*
D16*
G01*
X889025Y-3401009D03*
G01*
X635025Y-3401009D03*
G01*
X381025Y-3401009D03*
G01*
X1143025Y-3401009D03*
D14*
G01*
X1841500Y-1276350D03*
G01*
X1841500Y-1022350D03*
G01*
X1841500Y-768350D03*
G01*
X1841500Y-520700D03*
G01*
X2844800Y-520700D03*
G01*
X2844800Y-774700D03*
G01*
X2844800Y-1022350D03*
G01*
X2844800Y-1276350D03*
G01*
X2844800Y-1530350D03*
D13*
G01*
X2844800Y-1784350D03*
D14*
G01*
X1841500Y-1524000D03*
G01*
X1841500Y-1790700D03*
D13*
G01*
X381000Y-952500D03*
D14*
G01*
X381000Y-698500D03*
G01*
X635000Y-952500D03*
G01*
X635000Y-698500D03*
G01*
X889000Y-952500D03*
G01*
X889000Y-698500D03*
G01*
X1143000Y-952500D03*
G01*
X1143000Y-698500D03*
D13*
G01*
X5715000Y-762000D03*
D14*
G01*
X5461000Y-762000D03*
G01*
X5207000Y-762000D03*
G01*
X4953000Y-762000D03*
D17*
G01*
X7239000Y-889000D03*
G01*
X7493000Y-1079500D03*
G01*
X3619500Y-2730500D03*
G01*
X4318000Y-3873500D03*
G01*
X3746500Y-508000D03*
G01*
X3492500Y-762000D03*
M02*
