G04 Layer: TopSilkscreenLayer*
G04 EasyEDA v6.5.37, 2023-12-02 15:11:21*
G04 31473a8e6aac44f1905b94e0de15a8d0,10*
G04 Gerber Generator version 0.2*
G04 Scale: 100 percent, Rotated: No, Reflected: No *
G04 Dimensions in millimeters *
G04 leading zeros omitted , absolute positions ,4 integer and 5 decimal *
%FSLAX45Y45*%
%MOMM*%

%ADD10C,0.1524*%
%ADD11C,0.2032*%
%ADD12C,0.2030*%
%ADD13C,0.2540*%

%LPD*%
D10*
X7429500Y-392684D02*
G01*
X7502143Y-501650D01*
X7502143Y-392684D02*
G01*
X7429500Y-501650D01*
X7536434Y-392684D02*
G01*
X7578090Y-444500D01*
X7578090Y-501650D01*
X7619745Y-392684D02*
G01*
X7578090Y-444500D01*
X7654036Y-538226D02*
G01*
X7747508Y-538226D01*
X7781797Y-392684D02*
G01*
X7781797Y-501650D01*
X7781797Y-392684D02*
G01*
X7849361Y-392684D01*
X7781797Y-444500D02*
G01*
X7823200Y-444500D01*
X7883652Y-392684D02*
G01*
X7883652Y-501650D01*
X7883652Y-392684D02*
G01*
X7951215Y-392684D01*
X7883652Y-444500D02*
G01*
X7925054Y-444500D01*
X7883652Y-501650D02*
G01*
X7951215Y-501650D01*
X7985506Y-392684D02*
G01*
X7985506Y-501650D01*
X7985506Y-392684D02*
G01*
X8021827Y-392684D01*
X8037322Y-397763D01*
X8047736Y-408178D01*
X8053070Y-418592D01*
X8058150Y-434339D01*
X8058150Y-460247D01*
X8053070Y-475742D01*
X8047736Y-486155D01*
X8037322Y-496570D01*
X8021827Y-501650D01*
X7985506Y-501650D01*
X8699500Y-646686D02*
G01*
X8699500Y-755652D01*
X8699500Y-646686D02*
G01*
X8767063Y-646686D01*
X8699500Y-698502D02*
G01*
X8741156Y-698502D01*
X8801354Y-792228D02*
G01*
X8894825Y-792228D01*
X8960358Y-646686D02*
G01*
X8949943Y-651766D01*
X8939529Y-662180D01*
X8934450Y-672594D01*
X8929115Y-688342D01*
X8929115Y-714250D01*
X8934450Y-729744D01*
X8939529Y-740158D01*
X8949943Y-750572D01*
X8960358Y-755652D01*
X8981186Y-755652D01*
X8991600Y-750572D01*
X9001759Y-740158D01*
X9007093Y-729744D01*
X9012174Y-714250D01*
X9012174Y-688342D01*
X9007093Y-672594D01*
X9001759Y-662180D01*
X8991600Y-651766D01*
X8981186Y-646686D01*
X8960358Y-646686D01*
X9046463Y-646686D02*
G01*
X9088120Y-755652D01*
X9129775Y-646686D02*
G01*
X9088120Y-755652D01*
X9164065Y-646686D02*
G01*
X9164065Y-755652D01*
X9164065Y-646686D02*
G01*
X9210802Y-646686D01*
X9226295Y-651766D01*
X9231629Y-657100D01*
X9236709Y-667514D01*
X9236709Y-677928D01*
X9231629Y-688342D01*
X9226295Y-693422D01*
X9210802Y-698502D01*
X9164065Y-698502D01*
X9200388Y-698502D02*
G01*
X9236709Y-755652D01*
X8264143Y-392684D02*
G01*
X8191500Y-501650D01*
X8191500Y-392684D02*
G01*
X8264143Y-392684D01*
X8191500Y-501650D02*
G01*
X8264143Y-501650D01*
X8298434Y-538226D02*
G01*
X8392159Y-538226D01*
X8426450Y-392684D02*
G01*
X8426450Y-501650D01*
X8426450Y-392684D02*
G01*
X8493759Y-392684D01*
X8426450Y-444500D02*
G01*
X8467852Y-444500D01*
X8528050Y-392684D02*
G01*
X8528050Y-501650D01*
X8528050Y-392684D02*
G01*
X8595613Y-392684D01*
X8528050Y-444500D02*
G01*
X8569706Y-444500D01*
X8528050Y-501650D02*
G01*
X8595613Y-501650D01*
X8629904Y-392684D02*
G01*
X8629904Y-501650D01*
X8629904Y-392684D02*
G01*
X8666479Y-392684D01*
X8681974Y-397763D01*
X8692388Y-408178D01*
X8697468Y-418592D01*
X8702802Y-434339D01*
X8702802Y-460247D01*
X8697468Y-475742D01*
X8692388Y-486155D01*
X8681974Y-496570D01*
X8666479Y-501650D01*
X8629904Y-501650D01*
D11*
X6937265Y-3503175D02*
G01*
X6944123Y-3509779D01*
X6950981Y-3503175D01*
X6944123Y-3496317D01*
X6937265Y-3503175D01*
X8675103Y-2073092D02*
G01*
X8818359Y-2073092D01*
X8675103Y-2073092D02*
G01*
X8675103Y-2011624D01*
X8681961Y-1991304D01*
X8688819Y-1984446D01*
X8702281Y-1977588D01*
X8715997Y-1977588D01*
X8729713Y-1984446D01*
X8736571Y-1991304D01*
X8743429Y-2011624D01*
X8743429Y-2073092D02*
G01*
X8743429Y-2011624D01*
X8750033Y-1991304D01*
X8756891Y-1984446D01*
X8770607Y-1977588D01*
X8790927Y-1977588D01*
X8804643Y-1984446D01*
X8811501Y-1991304D01*
X8818359Y-2011624D01*
X8818359Y-2073092D01*
X8675103Y-1891736D02*
G01*
X8681961Y-1905452D01*
X8695677Y-1918914D01*
X8709139Y-1925772D01*
X8729713Y-1932630D01*
X8763749Y-1932630D01*
X8784323Y-1925772D01*
X8797785Y-1918914D01*
X8811501Y-1905452D01*
X8818359Y-1891736D01*
X8818359Y-1864558D01*
X8811501Y-1850842D01*
X8797785Y-1837126D01*
X8784323Y-1830268D01*
X8763749Y-1823664D01*
X8729713Y-1823664D01*
X8709139Y-1830268D01*
X8695677Y-1837126D01*
X8681961Y-1850842D01*
X8675103Y-1864558D01*
X8675103Y-1891736D01*
X8675103Y-1737558D02*
G01*
X8681961Y-1751274D01*
X8695677Y-1764990D01*
X8709139Y-1771848D01*
X8729713Y-1778452D01*
X8763749Y-1778452D01*
X8784323Y-1771848D01*
X8797785Y-1764990D01*
X8811501Y-1751274D01*
X8818359Y-1737558D01*
X8818359Y-1710380D01*
X8811501Y-1696664D01*
X8797785Y-1683202D01*
X8784323Y-1676344D01*
X8763749Y-1669486D01*
X8729713Y-1669486D01*
X8709139Y-1676344D01*
X8695677Y-1683202D01*
X8681961Y-1696664D01*
X8675103Y-1710380D01*
X8675103Y-1737558D01*
X8675103Y-1576776D02*
G01*
X8818359Y-1576776D01*
X8675103Y-1624528D02*
G01*
X8675103Y-1529024D01*
X8675103Y-3520892D02*
G01*
X8818359Y-3520892D01*
X8675103Y-3520892D02*
G01*
X8675103Y-3432246D01*
X8743429Y-3520892D02*
G01*
X8743429Y-3466282D01*
X8818359Y-3520892D02*
G01*
X8818359Y-3432246D01*
X8675103Y-3387288D02*
G01*
X8818359Y-3387288D01*
X8675103Y-3387288D02*
G01*
X8818359Y-3291784D01*
X8675103Y-3291784D02*
G01*
X8818359Y-3291784D01*
X8989809Y-2847792D02*
G01*
X9128239Y-2847792D01*
X9155925Y-2838648D01*
X9174467Y-2820106D01*
X9183611Y-2792420D01*
X9183611Y-2773878D01*
X9174467Y-2746192D01*
X9155925Y-2727650D01*
X9128239Y-2718506D01*
X8989809Y-2718506D01*
X9017495Y-2528260D02*
G01*
X8998953Y-2546802D01*
X8989809Y-2574488D01*
X8989809Y-2611318D01*
X8998953Y-2639004D01*
X9017495Y-2657546D01*
X9036037Y-2657546D01*
X9054325Y-2648402D01*
X9063723Y-2639004D01*
X9072867Y-2620462D01*
X9091409Y-2565090D01*
X9100553Y-2546802D01*
X9109697Y-2537404D01*
X9128239Y-2528260D01*
X9155925Y-2528260D01*
X9174467Y-2546802D01*
X9183611Y-2574488D01*
X9183611Y-2611318D01*
X9174467Y-2639004D01*
X9155925Y-2657546D01*
X8989809Y-2467300D02*
G01*
X9183611Y-2467300D01*
X8989809Y-2467300D02*
G01*
X8989809Y-2384242D01*
X8998953Y-2356302D01*
X9008097Y-2347158D01*
X9026639Y-2338014D01*
X9045181Y-2338014D01*
X9063723Y-2347158D01*
X9072867Y-2356302D01*
X9082011Y-2384242D01*
X9082011Y-2467300D02*
G01*
X9082011Y-2384242D01*
X9091409Y-2356302D01*
X9100553Y-2347158D01*
X9119095Y-2338014D01*
X9146781Y-2338014D01*
X9165323Y-2347158D01*
X9174467Y-2356302D01*
X9183611Y-2384242D01*
X9183611Y-2467300D01*
D10*
X3152393Y-2424684D02*
G01*
X3079750Y-2533650D01*
X3079750Y-2424684D02*
G01*
X3152393Y-2424684D01*
X3079750Y-2533650D02*
G01*
X3152393Y-2533650D01*
X3186684Y-2570226D02*
G01*
X3280409Y-2570226D01*
X3314700Y-2424684D02*
G01*
X3314700Y-2533650D01*
X3314700Y-2424684D02*
G01*
X3382009Y-2424684D01*
X3314700Y-2476500D02*
G01*
X3356102Y-2476500D01*
X3314700Y-2533650D02*
G01*
X3382009Y-2533650D01*
X2444750Y-2424684D02*
G01*
X2517393Y-2533650D01*
X2517393Y-2424684D02*
G01*
X2444750Y-2533650D01*
X2551684Y-2570226D02*
G01*
X2645409Y-2570226D01*
X2679700Y-2424684D02*
G01*
X2679700Y-2533650D01*
X2679700Y-2424684D02*
G01*
X2747009Y-2424684D01*
X2679700Y-2476500D02*
G01*
X2721102Y-2476500D01*
X2679700Y-2533650D02*
G01*
X2747009Y-2533650D01*
X1746250Y-2424684D02*
G01*
X1787905Y-2476500D01*
X1787905Y-2533650D01*
X1829307Y-2424684D02*
G01*
X1787905Y-2476500D01*
X1863597Y-2570226D02*
G01*
X1957070Y-2570226D01*
X1991359Y-2424684D02*
G01*
X1991359Y-2533650D01*
X1991359Y-2424684D02*
G01*
X2058924Y-2424684D01*
X1991359Y-2476500D02*
G01*
X2033015Y-2476500D01*
X1991359Y-2533650D02*
G01*
X2058924Y-2533650D01*
D11*
X316473Y-3263884D02*
G01*
X425439Y-3263884D01*
X316473Y-3263884D02*
G01*
X316473Y-3196320D01*
X368289Y-3263884D02*
G01*
X368289Y-3222228D01*
X425439Y-3263884D02*
G01*
X425439Y-3196320D01*
X316473Y-3162030D02*
G01*
X425439Y-3162030D01*
X316473Y-3162030D02*
G01*
X425439Y-3089386D01*
X316473Y-3089386D02*
G01*
X425439Y-3089386D01*
X583181Y-3263882D02*
G01*
X692147Y-3263882D01*
X583181Y-3229592D02*
G01*
X692147Y-3229592D01*
X583181Y-3229592D02*
G01*
X692147Y-3156948D01*
X583181Y-3156948D02*
G01*
X692147Y-3156948D01*
X598675Y-3075922D02*
G01*
X692147Y-3075922D01*
X645411Y-3122658D02*
G01*
X645411Y-3028932D01*
X863097Y-3192251D02*
G01*
X852683Y-3197585D01*
X842269Y-3207999D01*
X837189Y-3218159D01*
X837189Y-3238987D01*
X842269Y-3249401D01*
X852683Y-3259815D01*
X863097Y-3265149D01*
X878845Y-3270229D01*
X904753Y-3270229D01*
X920247Y-3265149D01*
X930661Y-3259815D01*
X941075Y-3249401D01*
X946155Y-3238987D01*
X946155Y-3218159D01*
X941075Y-3207999D01*
X930661Y-3197585D01*
X920247Y-3192251D01*
X904753Y-3192251D01*
X904753Y-3218159D02*
G01*
X904753Y-3192251D01*
X837189Y-3157961D02*
G01*
X946155Y-3157961D01*
X837189Y-3157961D02*
G01*
X946155Y-3085317D01*
X837189Y-3085317D02*
G01*
X946155Y-3085317D01*
X837189Y-3051027D02*
G01*
X946155Y-3051027D01*
X837189Y-3051027D02*
G01*
X837189Y-3014705D01*
X842269Y-2998957D01*
X852683Y-2988543D01*
X863097Y-2983463D01*
X878845Y-2978129D01*
X904753Y-2978129D01*
X920247Y-2983463D01*
X930661Y-2988543D01*
X941075Y-2998957D01*
X946155Y-3014705D01*
X946155Y-3051027D01*
X1078468Y-3263887D02*
G01*
X1187434Y-3222231D01*
X1078468Y-3180829D02*
G01*
X1187434Y-3222231D01*
X1078468Y-3115297D02*
G01*
X1083548Y-3125711D01*
X1093962Y-3136125D01*
X1104376Y-3141205D01*
X1120124Y-3146539D01*
X1146032Y-3146539D01*
X1161526Y-3141205D01*
X1171940Y-3136125D01*
X1182354Y-3125711D01*
X1187434Y-3115297D01*
X1187434Y-3094469D01*
X1182354Y-3084055D01*
X1171940Y-3073641D01*
X1161526Y-3068561D01*
X1146032Y-3063227D01*
X1120124Y-3063227D01*
X1104376Y-3068561D01*
X1093962Y-3073641D01*
X1083548Y-3084055D01*
X1078468Y-3094469D01*
X1078468Y-3115297D01*
X1093962Y-2982201D02*
G01*
X1187434Y-2982201D01*
X1140698Y-3028937D02*
G01*
X1140698Y-2935465D01*
X494281Y-2716522D02*
G01*
X566925Y-2768592D01*
X566925Y-2690614D01*
X494281Y-2716522D02*
G01*
X603247Y-2716522D01*
X494281Y-2656324D02*
G01*
X603247Y-2656324D01*
X494281Y-2656324D02*
G01*
X494281Y-2609588D01*
X499361Y-2594094D01*
X504695Y-2588760D01*
X515109Y-2583680D01*
X525523Y-2583680D01*
X535937Y-2588760D01*
X541017Y-2594094D01*
X546097Y-2609588D01*
X546097Y-2656324D01*
X546097Y-2620002D02*
G01*
X603247Y-2583680D01*
X494281Y-2476492D02*
G01*
X603247Y-2528562D01*
X494281Y-2549390D02*
G01*
X494281Y-2476492D01*
X1002281Y-2717792D02*
G01*
X1111247Y-2717792D01*
X1002281Y-2717792D02*
G01*
X1111247Y-2676136D01*
X1002281Y-2634734D02*
G01*
X1111247Y-2676136D01*
X1002281Y-2634734D02*
G01*
X1111247Y-2634734D01*
X1002281Y-2600444D02*
G01*
X1111247Y-2600444D01*
X1002281Y-2600444D02*
G01*
X1002281Y-2553708D01*
X1007361Y-2537960D01*
X1012695Y-2532880D01*
X1023109Y-2527546D01*
X1038603Y-2527546D01*
X1049017Y-2532880D01*
X1054097Y-2537960D01*
X1059431Y-2553708D01*
X1059431Y-2600444D01*
X1028189Y-2488176D02*
G01*
X1023109Y-2488176D01*
X1012695Y-2482842D01*
X1007361Y-2477762D01*
X1002281Y-2467348D01*
X1002281Y-2446520D01*
X1007361Y-2436106D01*
X1012695Y-2431026D01*
X1023109Y-2425692D01*
X1033523Y-2425692D01*
X1043937Y-2431026D01*
X1059431Y-2441440D01*
X1111247Y-2493256D01*
X1111247Y-2420612D01*
X1002281Y-2375908D02*
G01*
X1002281Y-2318758D01*
X1043937Y-2350000D01*
X1043937Y-2334252D01*
X1049017Y-2324092D01*
X1054097Y-2318758D01*
X1069845Y-2313678D01*
X1080259Y-2313678D01*
X1095753Y-2318758D01*
X1106167Y-2329172D01*
X1111247Y-2344666D01*
X1111247Y-2360414D01*
X1106167Y-2375908D01*
X1101087Y-2381242D01*
X1090673Y-2386322D01*
X1023109Y-2279388D02*
G01*
X1017775Y-2268974D01*
X1002281Y-2253226D01*
X1111247Y-2253226D01*
X1002281Y-2156706D02*
G01*
X1002281Y-2208522D01*
X1049017Y-2213856D01*
X1043937Y-2208522D01*
X1038603Y-2193028D01*
X1038603Y-2177534D01*
X1043937Y-2161786D01*
X1054097Y-2151372D01*
X1069845Y-2146292D01*
X1080259Y-2146292D01*
X1095753Y-2151372D01*
X1106167Y-2161786D01*
X1111247Y-2177534D01*
X1111247Y-2193028D01*
X1106167Y-2208522D01*
X1101087Y-2213856D01*
X1090673Y-2218936D01*
D10*
X2297684Y-1206500D02*
G01*
X2375661Y-1206500D01*
X2391156Y-1201420D01*
X2401570Y-1191005D01*
X2406650Y-1175257D01*
X2406650Y-1164844D01*
X2401570Y-1149350D01*
X2391156Y-1138936D01*
X2375661Y-1133855D01*
X2297684Y-1133855D01*
X2297684Y-1089152D02*
G01*
X2297684Y-1032002D01*
X2339340Y-1062989D01*
X2339340Y-1047495D01*
X2344420Y-1037081D01*
X2349500Y-1032002D01*
X2365247Y-1026668D01*
X2375661Y-1026668D01*
X2391156Y-1032002D01*
X2401570Y-1042415D01*
X2406650Y-1057910D01*
X2406650Y-1073404D01*
X2401570Y-1089152D01*
X2396490Y-1094231D01*
X2386075Y-1099565D01*
D11*
X1651000Y-1829815D02*
G01*
X1651000Y-1732787D01*
X1586229Y-1829815D02*
G01*
X1586229Y-1732787D01*
X1651000Y-1783587D02*
G01*
X1586229Y-1783587D01*
X1555750Y-1829815D02*
G01*
X1518920Y-1732787D01*
X1482089Y-1829815D02*
G01*
X1518920Y-1732787D01*
X1451610Y-1811273D02*
G01*
X1442212Y-1815845D01*
X1428495Y-1829815D01*
X1428495Y-1732787D01*
X1651000Y-1575815D02*
G01*
X1651000Y-1478787D01*
X1586229Y-1575815D02*
G01*
X1586229Y-1478787D01*
X1651000Y-1529587D02*
G01*
X1586229Y-1529587D01*
X1555750Y-1575815D02*
G01*
X1518920Y-1478787D01*
X1482089Y-1575815D02*
G01*
X1518920Y-1478787D01*
X1446784Y-1552702D02*
G01*
X1446784Y-1557273D01*
X1442212Y-1566418D01*
X1437639Y-1570989D01*
X1428495Y-1575815D01*
X1409954Y-1575815D01*
X1400810Y-1570989D01*
X1395984Y-1566418D01*
X1391412Y-1557273D01*
X1391412Y-1548129D01*
X1395984Y-1538731D01*
X1405381Y-1525015D01*
X1451610Y-1478787D01*
X1386839Y-1478787D01*
X1638300Y-1309115D02*
G01*
X1638300Y-1212087D01*
X1573529Y-1309115D02*
G01*
X1573529Y-1212087D01*
X1638300Y-1262887D02*
G01*
X1573529Y-1262887D01*
X1543050Y-1309115D02*
G01*
X1506220Y-1212087D01*
X1469389Y-1309115D02*
G01*
X1506220Y-1212087D01*
X1581657Y-1044702D02*
G01*
X1586229Y-1053845D01*
X1595628Y-1062989D01*
X1604771Y-1067815D01*
X1623313Y-1067815D01*
X1632457Y-1062989D01*
X1641855Y-1053845D01*
X1646428Y-1044702D01*
X1651000Y-1030731D01*
X1651000Y-1007618D01*
X1646428Y-993902D01*
X1641855Y-984504D01*
X1632457Y-975360D01*
X1623313Y-970787D01*
X1604771Y-970787D01*
X1595628Y-975360D01*
X1586229Y-984504D01*
X1581657Y-993902D01*
X1581657Y-1007618D01*
X1604771Y-1007618D02*
G01*
X1581657Y-1007618D01*
X1551178Y-1067815D02*
G01*
X1551178Y-970787D01*
X1551178Y-1067815D02*
G01*
X1486662Y-970787D01*
X1486662Y-1067815D02*
G01*
X1486662Y-970787D01*
X1456181Y-1067815D02*
G01*
X1456181Y-970787D01*
X1456181Y-1067815D02*
G01*
X1423670Y-1067815D01*
X1409954Y-1062989D01*
X1400810Y-1053845D01*
X1395984Y-1044702D01*
X1391412Y-1030731D01*
X1391412Y-1007618D01*
X1395984Y-993902D01*
X1400810Y-984504D01*
X1409954Y-975360D01*
X1423670Y-970787D01*
X1456181Y-970787D01*
X1651000Y-826515D02*
G01*
X1651000Y-729487D01*
X1586229Y-826515D02*
G01*
X1586229Y-729487D01*
X1651000Y-780287D02*
G01*
X1586229Y-780287D01*
X1555750Y-826515D02*
G01*
X1518920Y-729487D01*
X1482089Y-826515D02*
G01*
X1518920Y-729487D01*
X1442212Y-826515D02*
G01*
X1391412Y-826515D01*
X1419097Y-789431D01*
X1405381Y-789431D01*
X1395984Y-784860D01*
X1391412Y-780287D01*
X1386839Y-766318D01*
X1386839Y-757173D01*
X1391412Y-743204D01*
X1400810Y-734060D01*
X1414526Y-729487D01*
X1428495Y-729487D01*
X1442212Y-734060D01*
X1446784Y-738631D01*
X1451610Y-748029D01*
X1651000Y-559815D02*
G01*
X1651000Y-462787D01*
X1586229Y-559815D02*
G01*
X1586229Y-462787D01*
X1651000Y-513587D02*
G01*
X1586229Y-513587D01*
X1555750Y-559815D02*
G01*
X1518920Y-462787D01*
X1482089Y-559815D02*
G01*
X1518920Y-462787D01*
X1405381Y-559815D02*
G01*
X1451610Y-495045D01*
X1382268Y-495045D01*
X1405381Y-559815D02*
G01*
X1405381Y-462787D01*
X3263900Y-1829815D02*
G01*
X3263900Y-1732787D01*
X3263900Y-1732787D02*
G01*
X3208527Y-1732787D01*
X3178047Y-1829815D02*
G01*
X3140963Y-1732787D01*
X3104134Y-1829815D02*
G01*
X3140963Y-1732787D01*
X3073654Y-1811273D02*
G01*
X3064509Y-1815845D01*
X3050540Y-1829815D01*
X3050540Y-1732787D01*
X3289300Y-559815D02*
G01*
X3289300Y-462787D01*
X3289300Y-462787D02*
G01*
X3233927Y-462787D01*
X3203447Y-559815D02*
G01*
X3166363Y-462787D01*
X3129534Y-559815D02*
G01*
X3166363Y-462787D01*
X3052825Y-559815D02*
G01*
X3099054Y-495045D01*
X3029711Y-495045D01*
X3052825Y-559815D02*
G01*
X3052825Y-462787D01*
X3302000Y-813815D02*
G01*
X3302000Y-716787D01*
X3302000Y-716787D02*
G01*
X3246627Y-716787D01*
X3216147Y-813815D02*
G01*
X3179063Y-716787D01*
X3142234Y-813815D02*
G01*
X3179063Y-716787D01*
X3102609Y-813815D02*
G01*
X3051809Y-813815D01*
X3079495Y-776731D01*
X3065525Y-776731D01*
X3056381Y-772160D01*
X3051809Y-767587D01*
X3046984Y-753618D01*
X3046984Y-744473D01*
X3051809Y-730504D01*
X3060954Y-721360D01*
X3074670Y-716787D01*
X3088640Y-716787D01*
X3102609Y-721360D01*
X3107181Y-725931D01*
X3111754Y-735329D01*
X3232658Y-1044702D02*
G01*
X3237229Y-1053845D01*
X3246627Y-1062989D01*
X3255772Y-1067815D01*
X3274313Y-1067815D01*
X3283458Y-1062989D01*
X3292856Y-1053845D01*
X3297427Y-1044702D01*
X3302000Y-1030731D01*
X3302000Y-1007618D01*
X3297427Y-993902D01*
X3292856Y-984504D01*
X3283458Y-975360D01*
X3274313Y-970787D01*
X3255772Y-970787D01*
X3246627Y-975360D01*
X3237229Y-984504D01*
X3232658Y-993902D01*
X3232658Y-1007618D01*
X3255772Y-1007618D02*
G01*
X3232658Y-1007618D01*
X3202177Y-1067815D02*
G01*
X3202177Y-970787D01*
X3202177Y-1067815D02*
G01*
X3137661Y-970787D01*
X3137661Y-1067815D02*
G01*
X3137661Y-970787D01*
X3107181Y-1067815D02*
G01*
X3107181Y-970787D01*
X3107181Y-1067815D02*
G01*
X3074670Y-1067815D01*
X3060954Y-1062989D01*
X3051809Y-1053845D01*
X3046984Y-1044702D01*
X3042411Y-1030731D01*
X3042411Y-1007618D01*
X3046984Y-993902D01*
X3051809Y-984504D01*
X3060954Y-975360D01*
X3074670Y-970787D01*
X3107181Y-970787D01*
X3213100Y-1334515D02*
G01*
X3213100Y-1237487D01*
X3213100Y-1237487D02*
G01*
X3157727Y-1237487D01*
X3127247Y-1334515D02*
G01*
X3090163Y-1237487D01*
X3053334Y-1334515D02*
G01*
X3090163Y-1237487D01*
X3289300Y-1575815D02*
G01*
X3289300Y-1478787D01*
X3289300Y-1478787D02*
G01*
X3233927Y-1478787D01*
X3203447Y-1575815D02*
G01*
X3166363Y-1478787D01*
X3129534Y-1575815D02*
G01*
X3166363Y-1478787D01*
X3094481Y-1552702D02*
G01*
X3094481Y-1557273D01*
X3089909Y-1566418D01*
X3085084Y-1570989D01*
X3075940Y-1575815D01*
X3057397Y-1575815D01*
X3048254Y-1570989D01*
X3043681Y-1566418D01*
X3039109Y-1557273D01*
X3039109Y-1548129D01*
X3043681Y-1538731D01*
X3052825Y-1525015D01*
X3099054Y-1478787D01*
X3034284Y-1478787D01*
D10*
X788670Y-430784D02*
G01*
X788670Y-513842D01*
X783336Y-529589D01*
X778255Y-534670D01*
X767842Y-539750D01*
X757428Y-539750D01*
X747013Y-534670D01*
X741679Y-529589D01*
X736600Y-513842D01*
X736600Y-503428D01*
X822960Y-451612D02*
G01*
X833120Y-446278D01*
X848868Y-430784D01*
X848868Y-539750D01*
X5089143Y-947928D02*
G01*
X5078729Y-937513D01*
X5063236Y-932434D01*
X5042408Y-932434D01*
X5026913Y-937513D01*
X5016500Y-947928D01*
X5016500Y-958342D01*
X5021579Y-968755D01*
X5026913Y-974089D01*
X5037327Y-979170D01*
X5068570Y-989584D01*
X5078729Y-994663D01*
X5084063Y-999997D01*
X5089143Y-1010412D01*
X5089143Y-1025905D01*
X5078729Y-1036320D01*
X5063236Y-1041400D01*
X5042408Y-1041400D01*
X5026913Y-1036320D01*
X5016500Y-1025905D01*
X5201411Y-958342D02*
G01*
X5196331Y-947928D01*
X5185918Y-937513D01*
X5175504Y-932434D01*
X5154675Y-932434D01*
X5144261Y-937513D01*
X5133847Y-947928D01*
X5128768Y-958342D01*
X5123434Y-974089D01*
X5123434Y-999997D01*
X5128768Y-1015492D01*
X5133847Y-1025905D01*
X5144261Y-1036320D01*
X5154675Y-1041400D01*
X5175504Y-1041400D01*
X5185918Y-1036320D01*
X5196331Y-1025905D01*
X5201411Y-1015492D01*
X5235702Y-932434D02*
G01*
X5235702Y-1041400D01*
X5235702Y-932434D02*
G01*
X5282438Y-932434D01*
X5298186Y-937513D01*
X5303265Y-942847D01*
X5308600Y-953262D01*
X5308600Y-963676D01*
X5303265Y-974089D01*
X5298186Y-979170D01*
X5282438Y-984250D01*
X5235702Y-984250D01*
X5272024Y-984250D02*
G01*
X5308600Y-1041400D01*
X5342890Y-932434D02*
G01*
X5342890Y-1041400D01*
X5342890Y-932434D02*
G01*
X5410200Y-932434D01*
X5342890Y-984250D02*
G01*
X5384291Y-984250D01*
X5342890Y-1041400D02*
G01*
X5410200Y-1041400D01*
X5444490Y-932434D02*
G01*
X5444490Y-1041400D01*
X5444490Y-932434D02*
G01*
X5512054Y-932434D01*
X5444490Y-984250D02*
G01*
X5486145Y-984250D01*
X5444490Y-1041400D02*
G01*
X5512054Y-1041400D01*
X5546343Y-932434D02*
G01*
X5546343Y-1041400D01*
X5546343Y-932434D02*
G01*
X5619241Y-1041400D01*
X5619241Y-932434D02*
G01*
X5619241Y-1041400D01*
D12*
X8064500Y-1079500D02*
G01*
X8064500Y-762000D01*
D11*
X8064500Y-1079500D02*
G01*
X7810500Y-1079500D01*
X7810500Y-571500D01*
X8064500Y-571500D01*
X8064500Y-762000D01*
X8826500Y-1079500D02*
G01*
X8572500Y-1079500D01*
X8572500Y-828039D01*
X9334500Y-828039D01*
X9334500Y-1079500D01*
X8826500Y-1079500D01*
D12*
X8191500Y-571500D02*
G01*
X8191500Y-889000D01*
D11*
X8191500Y-571500D02*
G01*
X8445500Y-571500D01*
X8445500Y-1079500D01*
X8191500Y-1079500D01*
X8191500Y-889000D01*
D13*
X6493588Y-1706491D02*
G01*
X6410106Y-1706491D01*
X6493588Y-1968578D02*
G01*
X6493588Y-1706491D01*
X4622881Y-1706491D02*
G01*
X4571987Y-1706491D01*
X6410101Y-3508192D02*
G01*
X6493588Y-3508192D01*
X6493588Y-3247804D01*
X4571987Y-3508192D02*
G01*
X4622881Y-3508192D01*
X4571987Y-1708190D02*
G01*
X4571987Y-3508192D01*
X4457687Y-3343092D02*
G01*
X3987787Y-3343092D01*
X3987787Y-3101792D01*
X4229087Y-3101792D01*
X4229087Y-2847792D01*
X3987787Y-2847792D01*
X3987787Y-2593792D01*
X4229087Y-2593792D01*
X4229087Y-2339792D01*
X3987787Y-2339792D01*
X3987787Y-2085792D01*
X4470387Y-2085792D01*
X3987787Y-2085792D02*
G01*
X3987787Y-1882592D01*
X4470387Y-1882592D01*
X8797988Y-2998490D02*
G01*
X8797988Y-2208499D01*
X9397987Y-2208499D01*
X9397987Y-2998490D01*
X8797988Y-2998490D01*
X3871988Y-3508192D02*
G01*
X3871988Y-1704792D01*
X4571987Y-1704792D01*
X4571987Y-3508192D01*
X3871988Y-3508192D01*
X4571987Y-4031889D02*
G01*
X4571987Y-1231894D01*
X9397987Y-1231894D01*
X9397987Y-4031889D01*
X4571987Y-4031889D01*
X6341198Y-2073092D02*
G01*
X6341198Y-1984192D01*
X6544398Y-1984192D01*
X6544398Y-2073092D01*
X6341198Y-2073092D01*
X6341198Y-2200092D02*
G01*
X6341198Y-2111192D01*
X6544398Y-2111192D01*
X6544398Y-2200092D01*
X6341198Y-2200092D01*
X6341198Y-2327092D02*
G01*
X6341198Y-2238192D01*
X6544398Y-2238192D01*
X6544398Y-2327092D01*
X6341198Y-2327092D01*
X6341198Y-2454092D02*
G01*
X6341198Y-2365192D01*
X6544398Y-2365192D01*
X6544398Y-2454092D01*
X6341198Y-2454092D01*
X6341198Y-2581092D02*
G01*
X6341198Y-2492192D01*
X6544398Y-2492192D01*
X6544398Y-2581092D01*
X6341198Y-2581092D01*
X6341198Y-2708092D02*
G01*
X6341198Y-2619192D01*
X6544398Y-2619192D01*
X6544398Y-2708092D01*
X6341198Y-2708092D01*
X6341198Y-2835092D02*
G01*
X6341198Y-2746192D01*
X6544398Y-2746192D01*
X6544398Y-2835092D01*
X6341198Y-2835092D01*
X6341198Y-2962092D02*
G01*
X6341198Y-2873192D01*
X6544398Y-2873192D01*
X6544398Y-2962092D01*
X6341198Y-2962092D01*
X6341198Y-3089092D02*
G01*
X6341198Y-3000192D01*
X6544398Y-3000192D01*
X6544398Y-3089092D01*
X6341198Y-3089092D01*
X6341198Y-3228792D02*
G01*
X6341198Y-3127192D01*
X6544398Y-3127192D01*
X6544398Y-3228792D01*
X6341198Y-3228792D01*
X5566498Y-2593792D02*
G01*
X5566498Y-2454092D01*
X5693498Y-2454092D01*
X5693498Y-2593792D01*
X5566498Y-2593792D01*
X5566498Y-2771592D02*
G01*
X5566498Y-2644592D01*
X5693498Y-2644592D01*
X5693498Y-2771592D01*
X5566498Y-2771592D01*
X5566498Y-2962092D02*
G01*
X5566498Y-2822392D01*
X5693498Y-2822392D01*
X5693498Y-2962092D01*
X5566498Y-2962092D01*
X5375998Y-2593792D02*
G01*
X5375998Y-2454092D01*
X5515698Y-2454092D01*
X5515698Y-2593792D01*
X5375998Y-2593792D01*
X5375998Y-2771592D02*
G01*
X5375998Y-2644592D01*
X5515698Y-2644592D01*
X5515698Y-2771592D01*
X5375998Y-2771592D01*
X5375998Y-2962092D02*
G01*
X5375998Y-2822392D01*
X5515698Y-2822392D01*
X5515698Y-2962092D01*
X5375998Y-2962092D01*
X5198198Y-2593792D02*
G01*
X5198198Y-2454092D01*
X5325198Y-2454092D01*
X5325198Y-2593792D01*
X5198198Y-2593792D01*
X5198198Y-2771592D02*
G01*
X5198198Y-2644592D01*
X5325198Y-2644592D01*
X5325198Y-2771592D01*
X5198198Y-2771592D01*
X5198198Y-2962092D02*
G01*
X5198198Y-2822392D01*
X5325198Y-2822392D01*
X5325198Y-2962092D01*
X5198198Y-2962092D01*
X4652098Y-1857192D02*
G01*
X4652098Y-1653992D01*
X4740998Y-1653992D01*
X4740998Y-1857192D01*
X4652098Y-1857192D01*
X4779098Y-1857192D02*
G01*
X4779098Y-1653992D01*
X4867998Y-1653992D01*
X4867998Y-1857192D01*
X4779098Y-1857192D01*
X4906098Y-1857192D02*
G01*
X4906098Y-1653992D01*
X4994998Y-1653992D01*
X4994998Y-1857192D01*
X4906098Y-1857192D01*
X5033098Y-1857192D02*
G01*
X5033098Y-1653992D01*
X5121998Y-1653992D01*
X5121998Y-1857192D01*
X5033098Y-1857192D01*
X5160098Y-1857192D02*
G01*
X5160098Y-1653992D01*
X5248998Y-1653992D01*
X5248998Y-1857192D01*
X5160098Y-1857192D01*
X5287098Y-1857192D02*
G01*
X5287098Y-1653992D01*
X5375998Y-1653992D01*
X5375998Y-1857192D01*
X5287098Y-1857192D01*
X5414098Y-1857192D02*
G01*
X5414098Y-1653992D01*
X5502998Y-1653992D01*
X5502998Y-1857192D01*
X5414098Y-1857192D01*
X5541098Y-1857192D02*
G01*
X5541098Y-1653992D01*
X5629998Y-1653992D01*
X5629998Y-1857192D01*
X5541098Y-1857192D01*
X5668098Y-1857192D02*
G01*
X5668098Y-1653992D01*
X5756998Y-1653992D01*
X5756998Y-1857192D01*
X5668098Y-1857192D01*
X5795098Y-1857192D02*
G01*
X5795098Y-1653992D01*
X5883998Y-1653992D01*
X5883998Y-1857192D01*
X5795098Y-1857192D01*
X5922098Y-1857192D02*
G01*
X5922098Y-1653992D01*
X6010998Y-1653992D01*
X6010998Y-1857192D01*
X5922098Y-1857192D01*
X6049098Y-1857192D02*
G01*
X6049098Y-1653992D01*
X6137998Y-1653992D01*
X6137998Y-1857192D01*
X6049098Y-1857192D01*
X6176098Y-1857192D02*
G01*
X6176098Y-1653992D01*
X6264998Y-1653992D01*
X6264998Y-1857192D01*
X6176098Y-1857192D01*
X6303098Y-1857192D02*
G01*
X6303098Y-1653992D01*
X6391998Y-1653992D01*
X6391998Y-1857192D01*
X6303098Y-1857192D01*
X6303098Y-3558992D02*
G01*
X6303098Y-3355792D01*
X6391998Y-3355792D01*
X6391998Y-3558992D01*
X6303098Y-3558992D01*
X6176098Y-3558992D02*
G01*
X6176098Y-3355792D01*
X6264998Y-3355792D01*
X6264998Y-3558992D01*
X6176098Y-3558992D01*
X6049098Y-3558992D02*
G01*
X6049098Y-3355792D01*
X6137998Y-3355792D01*
X6137998Y-3558992D01*
X6049098Y-3558992D01*
X5922098Y-3558992D02*
G01*
X5922098Y-3355792D01*
X6010998Y-3355792D01*
X6010998Y-3558992D01*
X5922098Y-3558992D01*
X5795098Y-3558992D02*
G01*
X5795098Y-3355792D01*
X5883998Y-3355792D01*
X5883998Y-3558992D01*
X5795098Y-3558992D01*
X5668098Y-3558992D02*
G01*
X5668098Y-3355792D01*
X5756998Y-3355792D01*
X5756998Y-3558992D01*
X5668098Y-3558992D01*
X5541098Y-3558992D02*
G01*
X5541098Y-3355792D01*
X5629998Y-3355792D01*
X5629998Y-3558992D01*
X5541098Y-3558992D01*
X5414098Y-3558992D02*
G01*
X5414098Y-3355792D01*
X5502998Y-3355792D01*
X5502998Y-3558992D01*
X5414098Y-3558992D01*
X5287098Y-3558992D02*
G01*
X5287098Y-3355792D01*
X5375998Y-3355792D01*
X5375998Y-3558992D01*
X5287098Y-3558992D01*
X5160098Y-3558992D02*
G01*
X5160098Y-3355792D01*
X5248998Y-3355792D01*
X5248998Y-3558992D01*
X5160098Y-3558992D01*
X5033098Y-3558992D02*
G01*
X5033098Y-3355792D01*
X5121998Y-3355792D01*
X5121998Y-3558992D01*
X5033098Y-3558992D01*
X4906098Y-3558992D02*
G01*
X4906098Y-3355792D01*
X4994998Y-3355792D01*
X4994998Y-3558992D01*
X4906098Y-3558992D01*
X4779098Y-3558992D02*
G01*
X4779098Y-3355792D01*
X4867998Y-3355792D01*
X4867998Y-3558992D01*
X4779098Y-3558992D01*
X4652098Y-3558992D02*
G01*
X4652098Y-3355792D01*
X4740998Y-3355792D01*
X4740998Y-3558992D01*
X4652098Y-3558992D01*
X8851887Y-1996892D02*
G01*
X8851887Y-1603192D01*
X9156687Y-1603192D01*
X9156687Y-1996892D01*
X8851887Y-1996892D01*
X8851887Y-3597092D02*
G01*
X8851887Y-3203392D01*
X9156687Y-3203392D01*
X9156687Y-3597092D01*
X8851887Y-3597092D01*
X7238987Y-3365494D02*
G01*
X7238987Y-3238494D01*
X7492987Y-3238494D01*
X7492987Y-3365494D01*
X7238987Y-3365494D01*
X7238987Y-3187694D02*
G01*
X7238987Y-3073394D01*
X7492987Y-3073394D01*
X7492987Y-3187694D01*
X7238987Y-3187694D01*
X7531087Y-3365494D02*
G01*
X7531087Y-3238494D01*
X7581887Y-3238494D01*
X7581887Y-3365494D01*
X7531087Y-3365494D01*
X7619987Y-3365494D02*
G01*
X7619987Y-3238494D01*
X7670787Y-3238494D01*
X7670787Y-3365494D01*
X7619987Y-3365494D01*
X7708887Y-3365494D02*
G01*
X7708887Y-3238494D01*
X7759687Y-3238494D01*
X7759687Y-3365494D01*
X7708887Y-3365494D01*
X7531087Y-3187694D02*
G01*
X7531087Y-3073394D01*
X7759687Y-3073394D01*
X7759687Y-3187694D01*
X7531087Y-3187694D01*
X7238987Y-2730494D02*
G01*
X7238987Y-2349494D01*
X7746987Y-2349494D01*
X7746987Y-2730494D01*
X7238987Y-2730494D01*
X7365987Y-2349494D02*
G01*
X7365987Y-2209794D01*
X7619987Y-2209794D01*
X7619987Y-2349494D01*
X7365987Y-2349494D01*
X7467587Y-2870194D02*
G01*
X7467587Y-2730494D01*
X7531087Y-2730494D01*
X7531087Y-2870194D01*
X7467587Y-2870194D01*
X7327887Y-2870194D02*
G01*
X7327887Y-2730494D01*
X7391387Y-2730494D01*
X7391387Y-2870194D01*
X7327887Y-2870194D01*
X7607287Y-2870194D02*
G01*
X7607287Y-2730494D01*
X7670787Y-2730494D01*
X7670787Y-2870194D01*
X7607287Y-2870194D01*
X7416787Y-1879594D02*
G01*
X7416787Y-1600194D01*
X7543787Y-1600194D01*
X7543787Y-1879594D01*
X7416787Y-1879594D01*
X7365987Y-1790694D02*
G01*
X7365987Y-1689094D01*
X7416787Y-1689094D01*
X7416787Y-1790694D01*
X7365987Y-1790694D01*
X7543787Y-1841494D02*
G01*
X7543787Y-1790694D01*
X7607287Y-1790694D01*
X7607287Y-1841494D01*
X7543787Y-1841494D01*
X7543787Y-1689094D02*
G01*
X7543787Y-1638294D01*
X7607287Y-1638294D01*
X7607287Y-1689094D01*
X7543787Y-1689094D01*
X8000987Y-2857494D02*
G01*
X8000987Y-2336794D01*
X8521687Y-2336794D01*
X8521687Y-2857494D01*
X8000987Y-2857494D01*
D11*
X3111500Y-2603500D02*
G01*
X3365500Y-2603500D01*
X3365500Y-3619500D01*
X3111500Y-3619500D01*
X3111500Y-3429000D01*
D12*
X3111500Y-2603500D02*
G01*
X3111500Y-3429000D01*
D11*
X2476500Y-2603500D02*
G01*
X2730500Y-2603500D01*
X2730500Y-3619500D01*
X2476500Y-3619500D01*
X2476500Y-3429000D01*
D12*
X2476500Y-2603500D02*
G01*
X2476500Y-3429000D01*
D11*
X1778000Y-2603500D02*
G01*
X2032000Y-2603500D01*
X2032000Y-3619500D01*
X1778000Y-3619500D01*
X1778000Y-3429000D01*
D12*
X1778000Y-2603500D02*
G01*
X1778000Y-3429000D01*
D13*
X437022Y-2126013D02*
G01*
X437022Y-2176012D01*
X512025Y-2126013D02*
G01*
X512025Y-2176012D01*
X587021Y-2126013D02*
G01*
X587021Y-2176012D01*
X662025Y-2126013D02*
G01*
X662025Y-2176012D01*
X437022Y-1926013D02*
G01*
X437022Y-1876013D01*
X512025Y-1926013D02*
G01*
X512025Y-1876013D01*
X587021Y-1926013D02*
G01*
X587021Y-1876013D01*
X662025Y-1926013D02*
G01*
X662025Y-1876013D01*
X1085027Y-1850613D02*
G01*
X1085027Y-1647413D01*
X1186627Y-1749013D02*
G01*
X983427Y-1749013D01*
X212011Y-3526002D02*
G01*
X212011Y-1526006D01*
X1312009Y-1526006D01*
X1312009Y-3526002D01*
X212011Y-3526002D01*
X958009Y-1876018D02*
G01*
X958009Y-1622018D01*
X1212009Y-1622018D01*
X1212009Y-1876018D01*
X958009Y-1876018D01*
X324507Y-2859506D02*
G01*
X324507Y-2392502D01*
X799513Y-2392502D01*
X799513Y-2859506D01*
X324507Y-2859506D01*
X362023Y-2117013D02*
G01*
X362023Y-1926005D01*
X737029Y-1926005D01*
X737029Y-2117013D01*
X362023Y-2117013D01*
X2717800Y-641350D02*
G01*
X2717800Y-1720850D01*
X2717800Y-374650D02*
G01*
X2717800Y-628650D01*
X2717800Y-369806D02*
G01*
X2971800Y-369806D01*
X2717800Y-1720850D02*
G01*
X2717800Y-1911350D01*
X2971800Y-1911350D01*
X2971800Y-641350D01*
X2971800Y-374650D01*
X2717800Y-1652506D02*
G01*
X2971800Y-1652506D01*
X1714500Y-374650D02*
G01*
X1714500Y-628650D01*
X1714500Y-369806D02*
G01*
X1968500Y-369806D01*
X1714500Y-1720850D02*
G01*
X1714500Y-1911350D01*
X1968500Y-1911350D01*
X1968500Y-641350D01*
X1968500Y-374650D01*
X1714500Y-641350D02*
G01*
X1714500Y-1720850D01*
X1714500Y-1917700D02*
G01*
X1714500Y-368300D01*
X2971800Y-368300D01*
X2971800Y-1917700D01*
X1714500Y-1917700D01*
D11*
X254000Y-571500D02*
G01*
X254000Y-1079500D01*
X1270000Y-1079500D01*
X1270000Y-571500D01*
X254000Y-571500D01*
X4826000Y-889000D02*
G01*
X4826000Y-635000D01*
X5842000Y-635000D01*
X5842000Y-889000D01*
X5651500Y-889000D01*
D12*
X4826000Y-889000D02*
G01*
X5651500Y-889000D01*
D13*
G75*
G01
X9087993Y-1803502D02*
G03X9087993Y-1803502I-89992J0D01*
G75*
G01
X9087993Y-3403498D02*
G03X9087993Y-3403498I-89992J0D01*
G75*
G01
X1186612Y-1749019D02*
G03X1186612Y-1749019I-101600J0D01*
M02*
